<svg width="37" height="40" viewBox="0 0 37 40" xmlns="http://www.w3.org/2000/svg">
    <defs>
        <linearGradient x1="92.781%" y1="136.053%" x2="-22.38%" y2="0%" id="13qtpb2gva">
            <stop stopColor="#FDDBA2" offset="0%"/>
            <stop stopColor="#FFAF00" offset="100%"/>
        </linearGradient>
    </defs>
    <path d="m108.133 310.346 8.867-7.174-1.834-.86c-.802-.288-.587-.747-.286-1.851l1.346-4.936-5.156 1.09a.802.802 0 0 1-.917-.545l-.659-2.324-4.082 4.577c-.573.732-1.748.732-1.433-.961l1.748-9.269-2.335 1.22c-.66.358-1.318.416-1.69-.23L98.522 283l-3.224 6.04c-.372.646-1.03.588-1.69.23l-2.335-1.22 1.748 9.211c.358 1.693-.817 1.693-1.433.961l-4.082-4.576-.659 2.324a.802.802 0 0 1-.917.545l-5.156-1.09 1.346 4.935c.3 1.105.516 1.564-.286 1.85l-1.834.862 8.867 7.173c.362.292.524.767.415 1.22l-.788 2.654c3.066-.359 5.73-.89 8.867-1.22.258 0 .716.431.716.732l-.4 9.369h1.432l-.23-9.34c0-.316.416-.79.674-.76 3.065.33 5.73.86 8.867 1.22l-.702-2.512a1.206 1.206 0 0 1 .415-1.262z" transform="translate(-80 -283)" fill="url(#13qtpb2gva)" fillRule="nonzero"/>
</svg>
