<svg width="34" height="45" viewBox="0 0 34 45" xmlns="http://www.w3.org/2000/svg">
    <defs>
        <linearGradient x1="78.543%" y1="136.053%" x2="1.709%" y2="0%" id="rk8e3s99ja">
            <stop stopColor="#FDDBA2" offset="0%"/>
            <stop stopColor="#FFAF00" offset="100%"/>
        </linearGradient>
    </defs>
    <path d="M556.637 297.828c4.174 0 7.557-3.32 7.557-7.414 0-4.095-3.383-7.414-7.557-7.414s-7.558 3.32-7.558 7.414c0 4.095 3.384 7.414 7.558 7.414zm.522 14.03c.042 0 .07.017.087.053l1.35 2.672c.004.016.012.029.016.037l.933 1.842c.206.41.606.697 1.073.761l5.141.73c.041.004.066.028.079.064.012.037.004.069-.025.097l-3.722 3.543a1.383 1.383 0 0 0-.409 1.233l.079.444c.004.02.004.036.012.052l.788 4.502c.008.036-.004.069-.037.093-.033.024-.066.024-.103.008l-4.597-2.362a1.48 1.48 0 0 0-.665-.161 1.48 1.48 0 0 0-.664.16l-4.597 2.363c-.037.016-.07.016-.103-.008-.033-.024-.045-.057-.037-.093l.788-4.502.008-.056.079-.444a1.358 1.358 0 0 0-.409-1.233l-3.718-3.539c-.029-.028-.037-.06-.025-.097.013-.036.038-.06.079-.064l5.141-.73a1.42 1.42 0 0 0 1.073-.761l.933-1.842c.004-.013.012-.025.016-.037l1.35-2.672a.092.092 0 0 1 .086-.052zm9.156-2.445.016.002c.008.003.01.009.013.014l1.75 3.44.017.033.28.554c.194.383.567.647 1 .708l4.581.644c.008 0 .017 0 .025.02.009.016-.004.024-.008.029l-3.315 3.139a1.28 1.28 0 0 0-.382 1.14l.785 4.425c.004.008.004.016-.013.029-.016.012-.025.008-.033.004l-4.095-2.089a1.37 1.37 0 0 0-1.234 0l-1.829.932a.545.545 0 0 1 .168-.35l3.78-3.578a.941.941 0 0 0 .252-.99.985.985 0 0 0-.806-.655l-5.227-.737a.545.545 0 0 1-.416-.293l-.684-1.344 2.304-.326c.432-.06.805-.325.998-.704l.546-1.079.02-.037 1.482-2.915c.004-.008.008-.016.025-.016zm-18.63 0c.017 0 .021.008.025.016l1.481 2.915.021.037.546 1.079c.193.379.566.643.998.704l2.304.326-.684 1.344a.545.545 0 0 1-.416.293l-5.227.737a.985.985 0 0 0-.806.655.941.941 0 0 0 .252.99l3.78 3.578c.1.094.155.22.168.35l-1.83-.932a1.37 1.37 0 0 0-1.233 0l-4.095 2.089c-.008.004-.017.008-.033-.004-.017-.013-.017-.02-.013-.029l.785-4.425a1.28 1.28 0 0 0-.382-1.14l-3.315-3.14c-.004-.004-.017-.012-.008-.028.008-.02.017-.02.025-.02l4.582-.644c.432-.06.805-.325.998-.708l.281-.554.017-.032 1.75-3.44c.002-.006.005-.012.013-.015l.016-.002zm10.631-9.937c3.34 0 6.545 1.302 8.907 3.619a12.24 12.24 0 0 1 3.689 8.738v1.296l-.887-.126a1.575 1.575 0 0 1-1.112-.717l-.075-.134-.334-.665-.02-.04-2.08-4.132c-.002-.007-.006-.013-.015-.017l-.02-.003c-.019 0-.024.01-.029.02l-1.76 3.502-.025.044-.648 1.296c-.23.455-.673.773-1.187.846l-2.737.392.457.909h-1.189l-.544-1.08-.01-.019-.01-.026-1.63-3.243c-.02-.044-.055-.063-.105-.063a.111.111 0 0 0-.105.063l-1.63 3.243-.02.044-.546 1.081h-1.182l.461-.914-2.737-.392a1.572 1.572 0 0 1-1.186-.85l-.654-1.297-.03-.059-1.755-3.487c-.005-.01-.01-.02-.034-.02-.025 0-.03.01-.03.02l-2.433 4.842c-.23.455-.674.773-1.187.846l-1.523.216v-1.376a12.24 12.24 0 0 1 3.69-8.738 12.721 12.721 0 0 1 8.906-3.619h3.36z" transform="translate(-540 -283)" fill="url(#rk8e3s99ja)" fillRule="evenodd"/>
</svg>
