<svg width="1440" height="393" viewBox="0 0 1440 393" xmlns="http://www.w3.org/2000/svg" xmlns:xlink="http://www.w3.org/1999/xlink">
    <defs>
        <linearGradient x1="50%" y1="0%" x2="50%" y2="27.927%" id="rg9gyhahdc">
            <stop stopColor="#FFF" stopOpacity=".5" offset="0%"/>
            <stop stopColor="#7D7D7D" stopOpacity=".5" offset="50.97%"/>
            <stop stopColor="#FFF" stopOpacity=".5" offset="100%"/>
        </linearGradient>
        <path id="x3tbd2ibpa" d="M0 0h1440v393H0z"/>
    </defs>
    <g fill="none" fillRule="evenodd" opacity=".503">
        <mask id="rtj0xeeqsb" fill="#fff">
            <use xlink:href="#x3tbd2ibpa"/>
        </mask>
        <use fillOpacity="0" fill="#D8D8D8" xlink:href="#x3tbd2ibpa"/>
        <g mask="url(#rtj0xeeqsb)">
            <path fill="none" d="M0 0h1441v1441H0z"/>
            <path d="M81 .5v79.499h79V.5h1v79.499h79V.5h1v79.499h79V.5h1v79.499h79V.5h1v79.499h79V.5h1v79.499h79V.5h1v79.499h79V.5h1v79.499h79V.5h1v79.499h79V.5h1v79.499h79V.5h1v79.499h79V.5h1v79.499h79V.5h1v79.499h79V.5h1v79.499h79V.5h1v79.499h79V.5h1v79.499h79V.5h1v79.499l79.5.001v1l-79.5-.001v79l79.5.001v1l-79.5-.001v79l79.5.001v1l-79.5-.001v79l79.5.001v1l-79.5-.001v79l79.5.001v1l-79.5-.001v79l79.5.001v1l-79.5-.001v79l79.5.001v1l-79.5-.001v79l79.5.001v1l-79.5-.001v79l79.5.001v1l-79.5-.001v79l79.5.001v1l-79.5-.001v79l79.5.001v1l-79.5-.001v79l79.5.001v1l-79.5-.001v79l79.5.001v1l-79.5-.001v79l79.5.001v1l-79.5-.001v79l79.5.001v1l-79.5-.001v79l79.5.001v1l-79.5-.001v79l79.5.001v1l-79.5-.001v79l79.5.001v1H.5v-1l79.5-.001v-79L.5 1361v-1l79.5-.001v-79L.5 1281v-1l79.5-.001v-79L.5 1201v-1l79.5-.001v-79L.5 1121v-1l79.5-.001v-79L.5 1041v-1l79.5-.001v-79L.5 961v-1l79.5-.001v-79L.5 881v-1l79.5-.001v-79L.5 801v-1l79.5-.001v-79L.5 721v-1l79.5-.001v-79L.5 641v-1l79.5-.001v-79L.5 561v-1l79.5-.001v-79L.5 481v-1l79.5-.001v-79L.5 401v-1l79.5-.001v-79L.5 321v-1l79.5-.001v-79L.5 241v-1l79.5-.001v-79L.5 161v-1l79.5-.001v-79L.5 81v-1l79.5-.001V.5h1zm79 1360.499H81v79h79v-79zm80 0h-79v79h79v-79zm80 0h-79v79h79v-79zm80 0h-79v79h79v-79zm80 0h-79v79h79v-79zm80 0h-79v79h79v-79zm80 0h-79v79h79v-79zm80 0h-79v79h79v-79zm80 0h-79v79h79v-79zm80 0h-79v79h79v-79zm80 0h-79v79h79v-79zm80 0h-79v79h79v-79zm80 0h-79v79h79v-79zm80 0h-79v79h79v-79zm80 0h-79v79h79v-79zm80 0h-79v79h79v-79zm-1200-80H81v79h79v-79zm80 0h-79v79h79v-79zm80 0h-79v79h79v-79zm80 0h-79v79h79v-79zm80 0h-79v79h79v-79zm80 0h-79v79h79v-79zm80 0h-79v79h79v-79zm80 0h-79v79h79v-79zm80 0h-79v79h79v-79zm80 0h-79v79h79v-79zm80 0h-79v79h79v-79zm80 0h-79v79h79v-79zm80 0h-79v79h79v-79zm80 0h-79v79h79v-79zm80 0h-79v79h79v-79zm80 0h-79v79h79v-79zm-1200-80H81v79h79v-79zm80 0h-79v79h79v-79zm80 0h-79v79h79v-79zm80 0h-79v79h79v-79zm80 0h-79v79h79v-79zm80 0h-79v79h79v-79zm80 0h-79v79h79v-79zm80 0h-79v79h79v-79zm80 0h-79v79h79v-79zm80 0h-79v79h79v-79zm80 0h-79v79h79v-79zm80 0h-79v79h79v-79zm80 0h-79v79h79v-79zm80 0h-79v79h79v-79zm80 0h-79v79h79v-79zm80 0h-79v79h79v-79zm-1200-80H81v79h79v-79zm80 0h-79v79h79v-79zm80 0h-79v79h79v-79zm80 0h-79v79h79v-79zm80 0h-79v79h79v-79zm80 0h-79v79h79v-79zm80 0h-79v79h79v-79zm80 0h-79v79h79v-79zm80 0h-79v79h79v-79zm80 0h-79v79h79v-79zm80 0h-79v79h79v-79zm80 0h-79v79h79v-79zm80 0h-79v79h79v-79zm80 0h-79v79h79v-79zm80 0h-79v79h79v-79zm80 0h-79v79h79v-79zm-1200-80H81v79h79v-79zm80 0h-79v79h79v-79zm80 0h-79v79h79v-79zm80 0h-79v79h79v-79zm80 0h-79v79h79v-79zm80 0h-79v79h79v-79zm80 0h-79v79h79v-79zm80 0h-79v79h79v-79zm80 0h-79v79h79v-79zm80 0h-79v79h79v-79zm80 0h-79v79h79v-79zm80 0h-79v79h79v-79zm80 0h-79v79h79v-79zm80 0h-79v79h79v-79zm80 0h-79v79h79v-79zm80 0h-79v79h79v-79zm-1200-80H81v79h79v-79zm80 0h-79v79h79v-79zm80 0h-79v79h79v-79zm80 0h-79v79h79v-79zm80 0h-79v79h79v-79zm80 0h-79v79h79v-79zm80 0h-79v79h79v-79zm80 0h-79v79h79v-79zm80 0h-79v79h79v-79zm80 0h-79v79h79v-79zm80 0h-79v79h79v-79zm80 0h-79v79h79v-79zm80 0h-79v79h79v-79zm80 0h-79v79h79v-79zm80 0h-79v79h79v-79zm80 0h-79v79h79v-79zm-1200-80H81v79h79v-79zm80 0h-79v79h79v-79zm80 0h-79v79h79v-79zm80 0h-79v79h79v-79zm80 0h-79v79h79v-79zm80 0h-79v79h79v-79zm80 0h-79v79h79v-79zm80 0h-79v79h79v-79zm80 0h-79v79h79v-79zm80 0h-79v79h79v-79zm80 0h-79v79h79v-79zm80 0h-79v79h79v-79zm80 0h-79v79h79v-79zm80 0h-79v79h79v-79zm80 0h-79v79h79v-79zm80 0h-79v79h79v-79zm-1200-80H81v79h79v-79zm80 0h-79v79h79v-79zm80 0h-79v79h79v-79zm80 0h-79v79h79v-79zm80 0h-79v79h79v-79zm80 0h-79v79h79v-79zm80 0h-79v79h79v-79zm80 0h-79v79h79v-79zm80 0h-79v79h79v-79zm80 0h-79v79h79v-79zm80 0h-79v79h79v-79zm80 0h-79v79h79v-79zm80 0h-79v79h79v-79zm80 0h-79v79h79v-79zm80 0h-79v79h79v-79zm80 0h-79v79h79v-79zm-1200-80H81v79h79v-79zm80 0h-79v79h79v-79zm80 0h-79v79h79v-79zm80 0h-79v79h79v-79zm80 0h-79v79h79v-79zm80 0h-79v79h79v-79zm80 0h-79v79h79v-79zm80 0h-79v79h79v-79zm80 0h-79v79h79v-79zm80 0h-79v79h79v-79zm80 0h-79v79h79v-79zm80 0h-79v79h79v-79zm80 0h-79v79h79v-79zm80 0h-79v79h79v-79zm80 0h-79v79h79v-79zm80 0h-79v79h79v-79zm-1200-80H81v79h79v-79zm80 0h-79v79h79v-79zm80 0h-79v79h79v-79zm80 0h-79v79h79v-79zm80 0h-79v79h79v-79zm80 0h-79v79h79v-79zm80 0h-79v79h79v-79zm80 0h-79v79h79v-79zm80 0h-79v79h79v-79zm80 0h-79v79h79v-79zm80 0h-79v79h79v-79zm80 0h-79v79h79v-79zm80 0h-79v79h79v-79zm80 0h-79v79h79v-79zm80 0h-79v79h79v-79zm80 0h-79v79h79v-79zm-1200-80H81v79h79v-79zm80 0h-79v79h79v-79zm80 0h-79v79h79v-79zm80 0h-79v79h79v-79zm80 0h-79v79h79v-79zm80 0h-79v79h79v-79zm80 0h-79v79h79v-79zm80 0h-79v79h79v-79zm80 0h-79v79h79v-79zm80 0h-79v79h79v-79zm80 0h-79v79h79v-79zm80 0h-79v79h79v-79zm80 0h-79v79h79v-79zm80 0h-79v79h79v-79zm80 0h-79v79h79v-79zm80 0h-79v79h79v-79zm-1200-80H81v79h79v-79zm80 0h-79v79h79v-79zm80 0h-79v79h79v-79zm80 0h-79v79h79v-79zm80 0h-79v79h79v-79zm80 0h-79v79h79v-79zm80 0h-79v79h79v-79zm80 0h-79v79h79v-79zm80 0h-79v79h79v-79zm80 0h-79v79h79v-79zm80 0h-79v79h79v-79zm80 0h-79v79h79v-79zm80 0h-79v79h79v-79zm80 0h-79v79h79v-79zm80 0h-79v79h79v-79zm80 0h-79v79h79v-79zm-1200-80H81v79h79v-79zm80 0h-79v79h79v-79zm80 0h-79v79h79v-79zm80 0h-79v79h79v-79zm80 0h-79v79h79v-79zm80 0h-79v79h79v-79zm80 0h-79v79h79v-79zm80 0h-79v79h79v-79zm80 0h-79v79h79v-79zm80 0h-79v79h79v-79zm80 0h-79v79h79v-79zm80 0h-79v79h79v-79zm80 0h-79v79h79v-79zm80 0h-79v79h79v-79zm80 0h-79v79h79v-79zm80 0h-79v79h79v-79zm-1200-80H81v79h79v-79zm80 0h-79v79h79v-79zm80 0h-79v79h79v-79zm80 0h-79v79h79v-79zm80 0h-79v79h79v-79zm80 0h-79v79h79v-79zm80 0h-79v79h79v-79zm80 0h-79v79h79v-79zm80 0h-79v79h79v-79zm80 0h-79v79h79v-79zm80 0h-79v79h79v-79zm80 0h-79v79h79v-79zm80 0h-79v79h79v-79zm80 0h-79v79h79v-79zm80 0h-79v79h79v-79zm80 0h-79v79h79v-79zm-1200-80H81v79h79v-79zm80 0h-79v79h79v-79zm80 0h-79v79h79v-79zm80 0h-79v79h79v-79zm80 0h-79v79h79v-79zm80 0h-79v79h79v-79zm80 0h-79v79h79v-79zm80 0h-79v79h79v-79zm80 0h-79v79h79v-79zm80 0h-79v79h79v-79zm80 0h-79v79h79v-79zm80 0h-79v79h79v-79zm80 0h-79v79h79v-79zm80 0h-79v79h79v-79zm80 0h-79v79h79v-79zm80 0h-79v79h79v-79zm-1200-80H81v79h79v-79zm80 0h-79v79h79v-79zm80 0h-79v79h79v-79zm80 0h-79v79h79v-79zm80 0h-79v79h79v-79zm80 0h-79v79h79v-79zm80 0h-79v79h79v-79zm80 0h-79v79h79v-79zm80 0h-79v79h79v-79zm80 0h-79v79h79v-79zm80 0h-79v79h79v-79zm80 0h-79v79h79v-79zm80 0h-79v79h79v-79zm80 0h-79v79h79v-79zm80 0h-79v79h79v-79zm80 0h-79v79h79v-79zm-1200-80H81v79h79v-79zm80 0h-79v79h79v-79zm80 0h-79v79h79v-79zm80 0h-79v79h79v-79zm80 0h-79v79h79v-79zm80 0h-79v79h79v-79zm80 0h-79v79h79v-79zm80 0h-79v79h79v-79zm80 0h-79v79h79v-79zm80 0h-79v79h79v-79zm80 0h-79v79h79v-79zm80 0h-79v79h79v-79zm80 0h-79v79h79v-79zm80 0h-79v79h79v-79zm80 0h-79v79h79v-79zm80 0h-79v79h79v-79z" fill="url(#rg9gyhahdc)" opacity=".657"/>
        </g>
    </g>
</svg>
