<svg width="42" height="35" viewBox="0 0 42 35" xmlns="http://www.w3.org/2000/svg">
    <defs>
        <linearGradient x1="100%" y1="109.759%" x2="-34.593%" y2="15.278%" id="a2o5fht88a">
            <stop stop-color="#FDDBA2" offset="0%"/>
            <stop stop-color="#FFAF00" offset="100%"/>
        </linearGradient>
    </defs>
    <path d="M1002.444 3325.122c-.74-1.264-1.283-2.527-1.63-3.789a13.84 13.84 0 0 1-.521-3.682c0-3.225 1.111-5.973 3.334-8.244 2.222-2.271 4.904-3.407 8.046-3.407 1.812 0 3.528.378 5.147 1.134a12.48 12.48 0 0 1 4.18 3.142 12.48 12.48 0 0 1 4.18-3.142 12.007 12.007 0 0 1 5.138-1.134c3.148 0 5.833 1.136 8.055 3.407 2.223 2.271 3.334 5.02 3.334 8.244 0 1.193-.175 2.413-.526 3.66-.351 1.247-.893 2.494-1.625 3.742a4.617 4.617 0 0 0-1.422-.979 6.826 6.826 0 0 0-1.643-.49 14.942 14.942 0 0 0 1.342-3.03 9.89 9.89 0 0 0 .457-2.915c0-2.25-.779-4.17-2.335-5.76-1.557-1.591-3.436-2.387-5.637-2.387-1.419 0-2.89.403-4.412 1.209-1.523.806-3.158 2.303-4.906 4.492-1.748-2.173-3.383-3.666-4.906-4.48-1.522-.814-2.993-1.22-4.412-1.22-2.201 0-4.076.795-5.624 2.386-1.55 1.59-2.323 3.51-2.323 5.76 0 .953.148 1.925.444 2.916.297.99.748 2 1.354 3.03a6.008 6.008 0 0 0-1.643.524 5.543 5.543 0 0 0-1.446 1.013zM1000 3341v-2.647c0-1.226.628-2.22 1.884-2.981 1.256-.761 2.882-1.142 4.88-1.142.283 0 .533.003.748.01.215.006.44.03.675.072a8.978 8.978 0 0 0-.578 1.667 7.9 7.9 0 0 0-.21 1.856V3341H1000zm10.354 0v-3.165c0-2.012.983-3.63 2.949-4.855 1.966-1.224 4.53-1.836 7.694-1.836 3.206 0 5.782.612 7.729 1.836 1.947 1.224 2.92 2.843 2.92 4.855V3341h-21.292zm24.247 0v-3.175c0-.654-.063-1.268-.188-1.845a8.06 8.06 0 0 0-.557-1.668c.235-.042.463-.066.683-.072.22-.007.453-.01.697-.01 2.028 0 3.662.38 4.903 1.14 1.24.76 1.861 1.758 1.861 2.994V3341h-7.4zm-27.832-8.018c-.886 0-1.64-.32-2.263-.96-.622-.64-.933-1.413-.933-2.318 0-.907.312-1.678.935-2.314.623-.636 1.375-.954 2.256-.954.883 0 1.639.319 2.27.955a3.16 3.16 0 0 1 .945 2.308c0 .9-.313 1.673-.94 2.317-.625.644-1.382.966-2.27.966zm28.473 0c-.887 0-1.641-.32-2.263-.96-.622-.64-.933-1.413-.933-2.318 0-.907.311-1.678.934-2.314.624-.636 1.376-.954 2.257-.954.882 0 1.639.319 2.269.955a3.16 3.16 0 0 1 .945 2.308c0 .9-.313 1.673-.939 2.317-.626.644-1.383.966-2.27.966zm-14.23-3.136c-1.523 0-2.817-.544-3.883-1.633-1.066-1.09-1.598-2.412-1.598-3.968 0-1.574.532-2.897 1.598-3.969s2.36-1.608 3.883-1.608c1.54 0 2.835.536 3.884 1.608s1.573 2.395 1.573 3.969c0 1.556-.524 2.878-1.573 3.968-1.05 1.089-2.344 1.633-3.884 1.633z" transform="translate(-1000 -3306)" fill="url(#a2o5fht88a)" fill-rule="nonzero"/>
</svg>
