<svg width="40" height="38" viewBox="0 0 40 38" xmlns="http://www.w3.org/2000/svg">
    <defs>
        <linearGradient x1="100%" y1="127.663%" x2="-34.593%" y2="4.875%" id="18ti99txaa">
            <stop stop-color="#FDDBA2" offset="0%"/>
            <stop stop-color="#FFAF00" offset="100%"/>
        </linearGradient>
    </defs>
    <path d="m93.91 3342-3.462-5.883-6.88-1.418.79-6.645L80 3323l4.359-5.01-.79-6.67 6.88-1.393L93.91 3304l6.09 2.787 6.114-2.787 3.481 5.927 6.837 1.393-.79 6.67L120 3323l-4.359 5.054.79 6.645-6.836 1.418-3.48 5.883-6.115-2.787-6.09 2.787zm4.215-13.036 10.096-9.954-2.184-1.974-7.912 7.806-4.118-4.318-2.228 2.172 6.346 6.268z" transform="translate(-80 -3304)" fill="url(#18ti99txaa)" fill-rule="nonzero"/>
</svg>
