<svg xmlns="http://www.w3.org/2000/svg" xmlns:xlink="http://www.w3.org/1999/xlink" width="380" height="177" viewBox="0 0 380 177">
    <defs>
        <linearGradient x1="64.834%" y1="-17.501%" x2="97.971%" y2="35.222%" id="sf9kre5joc">
            <stop stop-color="#FFF" stop-opacity="0" offset="0%"/>
            <stop stop-color="#888" offset="100%"/>
            <stop stop-color="#888" offset="100%"/>
        </linearGradient>
        <path id="mi5m4duc3a" d="M0 0h380v177H0z"/>
    </defs>
    <g fill="none" fill-rule="evenodd" opacity=".396">
        <mask id="gew5isfq0b" fill="#fff">
            <use xlink:href="#mi5m4duc3a"/>
        </mask>
        <use fill-opacity="0" fill="#FFF" xlink:href="#mi5m4duc3a"/>
        <g mask="url(#gew5isfq0b)">
            <path fill="none" d="M76-3h305v501H76z"/>
            <path d="M461.377 461.377V500h-.38l-.001-38.623h.381zM38.623 500h-.381v-38.623H0v-.38l38.242-.001v-38.051H0v-.38l38.242-.001v-38.052H0v-.38h38.242V346.08H0v-.38h38.242v-38.052H0v-.38l38.242-.001v-38.051H0v-.38l38.242-.001v-38.052H0v-.38h38.242v-38.052H0v-.38h38.242v-38.052H0v-.38l38.242-.001v-38.051H0v-.38l38.242-.001V77.054H0v-.38h38.242V38.622H0v-.38h38.242V0h.38v38.242h38.052V0h.38v38.242h38.052V0h.381v38.242h38.051V0h.381v38.242h38.052V0h.38v38.242h38.052V0h.38v38.242h38.052V0h.381v38.242h38.051V0h.381v38.242H345.7V0h.38v38.242h38.052V0h.38v38.242h38.052V0h.381v38.242h38.051v.38h-38.051v38.052h38.051v.38h-38.051v38.052h38.051v.381h-38.051v38.051h38.051v.381h-38.051v38.052h38.051v.38h-38.051v38.052h38.051v.38h-38.051v38.052h38.051v.381h-38.051v38.051h38.051v.381h-38.051V345.7h38.051v.38h-38.051v38.052h38.051v.38h-38.051v38.052h38.051v.381h-38.051v38.051h38.051v.381h-38.051V500h-.38l-.001-38.623h-38.052V500h-.38v-38.623H346.08V500h-.38v-38.623h-38.052V500h-.38l-.001-38.623h-38.051V500h-.38l-.001-38.623h-38.052V500h-.38v-38.623h-38.052V500h-.38v-38.623h-38.052V500h-.38l-.001-38.623h-38.051V500h-.38l-.001-38.623H77.054V500h-.38v-38.623H38.622V500zM500 460.997v.38h-38.623v-.381l38.623.001zm-461.378-.001h38.052v-38.051H38.622v38.051zm230.213-38.051h-38.052v38.051h38.052v-38.051zm38.432 0h-38.051v38.051h38.051v-38.051zm-153.729 0h-38.051v38.051h38.051v-38.051zm76.865 0h-38.052v38.051h38.052v-38.051zm115.297 0h-38.052v38.051H345.7v-38.051zm38.432 0H346.08v38.051h38.052v-38.051zm-192.161 0h-38.052v38.051h38.052v-38.051zm-76.865 0H77.054v38.051h38.052v-38.051zm307.458 0h-38.052v38.051h38.052v-38.051zm38.813 0v38.051h-.381v-38.051h.381zm38.623-.38v.38h-38.623v-.381H500zm-461.378-.001h38.052v-38.052H38.622v38.052zM345.7 384.512h-38.052v38.052H345.7v-38.052zm38.432 0H346.08v38.052h38.052v-38.052zm-115.297 0h-38.052v38.052h38.052v-38.052zm-153.729 0H77.054v38.052h38.052v-38.052zm307.458 0h-38.052v38.052h38.052v-38.052zm-269.026 0h-38.051v38.052h38.051v-38.052zm307.839 0v38.052h-.381v-38.052h.381zm-269.406 0h-38.052v38.052h38.052v-38.052zm115.296 0h-38.051v38.052h38.051v-38.052zm-76.864 0h-38.052v38.052h38.052v-38.052zm269.597-.38v.38h-38.623v-.38H500zm-461.378 0h38.052V346.08H38.622v38.052zm422.755-38.052v38.052h-.381V346.08h.381zm-38.813 0h-38.052v38.052h38.052V346.08zm-38.432 0H346.08v38.052h38.052V346.08zm-38.432 0h-38.052v38.052H345.7V346.08zm-38.433 0h-38.051v38.052h38.051V346.08zm-38.432 0h-38.052v38.052h38.052V346.08zm-38.432 0h-38.052v38.052h38.052V346.08zm-115.297 0H77.054v38.052h38.052V346.08zm38.432 0h-38.051v38.052h38.051V346.08zm38.433 0h-38.052v38.052h38.052V346.08zM500 345.7v.38h-38.623v-.38H500zm-461.378 0h38.052v-38.052H38.622V345.7zm268.645-38.052h-38.051V345.7h38.051v-38.052zm154.11 0V345.7h-.381v-38.052h.381zm-38.813 0h-38.052V345.7h38.052v-38.052zm-38.432 0H346.08V345.7h38.052v-38.052zm-153.729 0h-38.052V345.7h38.052v-38.052zm-76.865 0h-38.051V345.7h38.051v-38.052zm192.162 0h-38.052V345.7H345.7v-38.052zm-230.594 0H77.054V345.7h38.052v-38.052zm153.729 0h-38.052V345.7h38.052v-38.052zm-76.864 0h-38.052V345.7h38.052v-38.052zm308.029-.38v.38h-38.623v-.381H500zm-461.378-.001h38.052v-38.051H38.622v38.051zm114.916-38.051h-38.051v38.051h38.051v-38.051zm76.865 0h-38.052v38.051h38.052v-38.051zm76.864 0h-38.051v38.051h38.051v-38.051zm115.297 0h-38.052v38.051h38.052v-38.051zm38.813 0v38.051h-.381v-38.051h.381zm-115.677 0h-38.052v38.051H345.7v-38.051zm-76.865 0h-38.052v38.051h38.052v-38.051zm-153.729 0H77.054v38.051h38.052v-38.051zm76.865 0h-38.052v38.051h38.052v-38.051zm192.161 0H346.08v38.051h38.052v-38.051zm115.868-.38v.38h-38.623v-.381H500zm-461.378-.001h38.052v-38.052H38.622v38.052zm114.916-38.052h-38.051v38.052h38.051v-38.052zm-38.432 0H77.054v38.052h38.052v-38.052zm76.865 0h-38.052v38.052h38.052v-38.052zm38.432 0h-38.052v38.052h38.052v-38.052zm38.432 0h-38.052v38.052h38.052v-38.052zm38.432 0h-38.051v38.052h38.051v-38.052zm38.433 0h-38.052v38.052H345.7v-38.052zm38.432 0H346.08v38.052h38.052v-38.052zm77.245 0v38.052h-.381v-38.052h.381zm-38.813 0h-38.052v38.052h38.052v-38.052zm77.436-.38v.38h-38.623v-.38H500zm-461.378 0h38.052v-38.052H38.622v38.052zm383.942-38.052h-38.052v38.052h38.052v-38.052zm38.813 0v38.052h-.381v-38.052h.381zm-307.839 0h-38.051v38.052h38.051v-38.052zm230.594 0H346.08v38.052h38.052v-38.052zm-38.432 0h-38.052v38.052H345.7v-38.052zm-38.433 0h-38.051v38.052h38.051v-38.052zm-115.296 0h-38.052v38.052h38.052v-38.052zm-76.865 0H77.054v38.052h38.052v-38.052zm153.729 0h-38.052v38.052h38.052v-38.052zm-38.432 0h-38.052v38.052h38.052v-38.052zm269.597-.38v.38h-38.623v-.38H500zm-461.378 0h38.052v-38.052H38.622v38.052zm114.916-38.052h-38.051v38.052h38.051v-38.052zm230.594 0H346.08v38.052h38.052v-38.052zm38.432 0h-38.052v38.052h38.052v-38.052zm-76.864 0h-38.052v38.052H345.7v-38.052zm-38.433 0h-38.051v38.052h38.051v-38.052zm-38.432 0h-38.052v38.052h38.052v-38.052zm192.542 0v38.052h-.381v-38.052h.381zm-346.271 0H77.054v38.052h38.052v-38.052zm76.865 0h-38.052v38.052h38.052v-38.052zm38.432 0h-38.052v38.052h38.052v-38.052zm269.597-.38v.38h-38.623v-.381H500zm-461.378-.001h38.052v-38.051H38.622v38.051zm268.645-38.051h-38.051v38.051h38.051v-38.051zm-192.161 0H77.054v38.051h38.052v-38.051zm115.297 0h-38.052v38.051h38.052v-38.051zm-76.865 0h-38.051v38.051h38.051v-38.051zm38.433 0h-38.052v38.051h38.052v-38.051zm76.864 0h-38.052v38.051h38.052v-38.051zm76.865 0h-38.052v38.051H345.7v-38.051zm38.432 0H346.08v38.051h38.052v-38.051zm38.432 0h-38.052v38.051h38.052v-38.051zm38.813 0v38.051h-.381v-38.051h.381zm38.623-.38v.38h-38.623v-.381H500zm-461.378-.001h38.052V77.054H38.622v38.052zm345.51-38.052H346.08v38.052h38.052V77.054zm-230.594 0h-38.051v38.052h38.051V77.054zm307.839 0v38.052h-.381V77.054h.381zm-38.813 0h-38.052v38.052h38.052V77.054zm-115.297 0h-38.051v38.052h38.051V77.054zm38.433 0h-38.052v38.052H345.7V77.054zm-153.729 0h-38.052v38.052h38.052V77.054zm-76.865 0H77.054v38.052h38.052V77.054zm153.729 0h-38.052v38.052h38.052V77.054zm-38.432 0h-38.052v38.052h38.052V77.054zM500 76.674v.38h-38.623v-.38H500zm-461.378 0h38.052V38.622H38.622v38.052zm230.213-38.052h-38.052v38.052h38.052V38.622zm76.865 0h-38.052v38.052H345.7V38.622zm76.864 0h-38.052v38.052h38.052V38.622zm-38.432 0H346.08v38.052h38.052V38.622zm-153.729 0h-38.052v38.052h38.052V38.622zm-76.865 0h-38.051v38.052h38.051V38.622zm38.433 0h-38.052v38.052h38.052V38.622zm-76.865 0H77.054v38.052h38.052V38.622zm346.271 0v38.052h-.381V38.622h.381zm-154.11 0h-38.051v38.052h38.051V38.622zM500 38.242v.38h-38.623v-.38H500zM461.377 0v38.242h-.381L460.997 0h.38z" fill="url(#sf9kre5joc)" transform="translate(-120 -3)"/>
        </g>
    </g>
</svg>