<svg width="1439" height="640" viewBox="0 0 1439 640" xmlns="http://www.w3.org/2000/svg" xmlns:xlink="http://www.w3.org/1999/xlink">
    <defs>
        <radialGradient cx="99.199%" cy="44.072%" fx="99.199%" fy="44.072%" r="61.607%" gradientTransform="matrix(-1 0 0 -.6502 1.984 .727)" id="tvkh7rsq7c">
            <stop stop-color="#FFF" offset="0%"/>
            <stop stop-color="#FFF" stop-opacity="0" offset="100%"/>
        </radialGradient>
        <path id="0fnriu348a" d="M0 0h1439v640H0z"/>
    </defs>
    <g fill="none" fill-rule="evenodd">
        <mask id="yoob8zykwb" fill="#fff">
            <use xlink:href="#0fnriu348a"/>
        </mask>
        <use fill-opacity="0" fill="#D8D8D8" xlink:href="#0fnriu348a"/>
        <g mask="url(#yoob8zykwb)">
            <path fill="none" d="M0-1h1441v1441H0z"/>
            <path d="M1440.5.5V1h.5v1440h-.501l.001.5H.5l-.001-.5H0V1h.5V.5h1440zM80 1361.5H1v79h79v-79zm80 0H81v79h79v-79zm80 0h-79v79h79v-79zm80 0h-79v79h79v-79zm80 0h-79v79h79v-79zm80 0h-79v79h79v-79zm80 0h-79v79h79v-79zm80 0h-79v79h79v-79zm80 0h-79v79h79v-79zm80 0h-79v79h79v-79zm80 0h-79v79h79v-79zm80 0h-79v79h79v-79zm80 0h-79v79h79v-79zm80 0h-79v79h79v-79zm80 0h-79v79h79v-79zm80 0h-79v79h79v-79zm80 0h-79v79h79v-79zm80 0h-79v79h79v-79zm-1360-80H1v79h79v-79zm80 0H81v79h79v-79zm80 0h-79v79h79v-79zm80 0h-79v79h79v-79zm80 0h-79v79h79v-79zm80 0h-79v79h79v-79zm80 0h-79v79h79v-79zm80 0h-79v79h79v-79zm80 0h-79v79h79v-79zm80 0h-79v79h79v-79zm80 0h-79v79h79v-79zm80 0h-79v79h79v-79zm80 0h-79v79h79v-79zm80 0h-79v79h79v-79zm80 0h-79v79h79v-79zm80 0h-79v79h79v-79zm80 0h-79v79h79v-79zm80 0h-79v79h79v-79zm-1360-80H1v79h79v-79zm80 0H81v79h79v-79zm80 0h-79v79h79v-79zm80 0h-79v79h79v-79zm80 0h-79v79h79v-79zm80 0h-79v79h79v-79zm80 0h-79v79h79v-79zm80 0h-79v79h79v-79zm80 0h-79v79h79v-79zm80 0h-79v79h79v-79zm80 0h-79v79h79v-79zm80 0h-79v79h79v-79zm80 0h-79v79h79v-79zm80 0h-79v79h79v-79zm80 0h-79v79h79v-79zm80 0h-79v79h79v-79zm80 0h-79v79h79v-79zm80 0h-79v79h79v-79zm-1360-80H1v79h79v-79zm80 0H81v79h79v-79zm80 0h-79v79h79v-79zm80 0h-79v79h79v-79zm80 0h-79v79h79v-79zm80 0h-79v79h79v-79zm80 0h-79v79h79v-79zm80 0h-79v79h79v-79zm80 0h-79v79h79v-79zm80 0h-79v79h79v-79zm80 0h-79v79h79v-79zm80 0h-79v79h79v-79zm80 0h-79v79h79v-79zm80 0h-79v79h79v-79zm80 0h-79v79h79v-79zm80 0h-79v79h79v-79zm80 0h-79v79h79v-79zm80 0h-79v79h79v-79zm-1360-80H1v79h79v-79zm80 0H81v79h79v-79zm80 0h-79v79h79v-79zm80 0h-79v79h79v-79zm80 0h-79v79h79v-79zm80 0h-79v79h79v-79zm80 0h-79v79h79v-79zm80 0h-79v79h79v-79zm80 0h-79v79h79v-79zm80 0h-79v79h79v-79zm80 0h-79v79h79v-79zm80 0h-79v79h79v-79zm80 0h-79v79h79v-79zm80 0h-79v79h79v-79zm80 0h-79v79h79v-79zm80 0h-79v79h79v-79zm80 0h-79v79h79v-79zm80 0h-79v79h79v-79zM1 961.499v79.001h79v-79.001H1zm80 0v79.001h79v-79.001H81zm80 0v79.001h79v-79.001h-79zm80 0v79.001h79v-79.001h-79zm80 0v79.001h79v-79.001h-79zm80 0v79.001h79v-79.001h-79zm80 0v79.001h79v-79.001h-79zm80 0v79.001h79v-79.001h-79zm80 0v79.001h79v-79.001h-79zm80 .001v79h79v-79h-79zm80 0v79h79v-79h-79zm80 0v79h79v-79h-79zm80 0v79h79v-79h-79zm80 0v79h79v-79h-79zm80 0v79h79v-79h-79zm80 0v79h79v-79h-79zm80 0v79h79v-79h-79zm80 0v79h79v-79h-79zm0-80v79h79v-79h-79zm-80 0v79h79v-79h-79zm-80 0v79h79v-79h-79zm-80 0v79h79v-79h-79zm-80 0v79h79v-79h-79zm-80 0v79h79v-79h-79zm-80 0v79h79v-79h-79zm-80 0v79h79v-79h-79zm-80 0v79h79v-79h-79zm-80-.001v79h79v-79h-79zm-80 0v79h79v-79h-79zm-80 0v79h79v-79h-79zm-80 0v79h79v-79h-79zm-80 0v79h79v-79h-79zm-80 0v79h79v-79h-79zm-80 0v79h79v-79h-79zm-80 0v79h79v-79H81zm-80 0v79h79v-79H1zM1361 801.5v79h79v-79h-79zm-80 0v79h79v-79h-79zm-80 0v79h79v-79h-79zm-80 0v79h79v-79h-79zm-80 0v79h79v-79h-79zm-80 0v79h79v-79h-79zm-80 0v79h79v-79h-79zm-80 0v79h79v-79h-79zm-80 0v79h79v-79h-79zm-80-.001v79h79v-79h-79zm-80 0v79h79v-79h-79zm-80 0v79h79v-79h-79zm-80 0v79h79v-79h-79zm-80 0v79h79v-79h-79zm-80 0v79h79v-79h-79zm-80 0v79h79v-79h-79zm-80 0v79h79v-79H81zm-80 0v79h79v-79H1zM1361 721.5v79h79v-79h-79zm-80 0v79h79v-79h-79zm-80 0v79h79v-79h-79zm-80 0v79h79v-79h-79zm-80 0v79h79v-79h-79zm-80 0v79h79v-79h-79zm-80 0v79h79v-79h-79zm-80 0v79h79v-79h-79zm-80 0v79h79v-79h-79zm-80-.001v79h79v-79h-79zm-80 0v79h79v-79h-79zm-80 0v79h79v-79h-79zm-80 0v79h79v-79h-79zm-80 0v79h79v-79h-79zm-80 0v79h79v-79h-79zm-80 0v79h79v-79h-79zm-80 0v79h79v-79H81zm-80 0v79h79v-79H1zM1361 641.5v79h79v-79h-79zm-80 0v79h79v-79h-79zm-80 0v79h79v-79h-79zm-80 0v79h79v-79h-79zm-80 0v79h79v-79h-79zm-80 0v79h79v-79h-79zm-80 0v79h79v-79h-79zm-80 0v79h79v-79h-79zm-80 0v79h79v-79h-79zm-80-.001v79h79v-79h-79zm-80 0v79h79v-79h-79zm-80 0v79h79v-79h-79zm-80 0v79h79v-79h-79zm-80 0v79h79v-79h-79zm-80 0v79h79v-79h-79zm-80 0v79h79v-79h-79zm-80 0v79h79v-79H81zm-80 0v79h79v-79H1zM1361 561.5v79h79v-79h-79zm-80 0v79h79v-79h-79zm-80 0v79h79v-79h-79zm-80 0v79h79v-79h-79zm-80 0v79h79v-79h-79zm-80 0v79h79v-79h-79zm-80 0v79h79v-79h-79zm-80 0v79h79v-79h-79zm-80 0v79h79v-79h-79zm-80-.001v79h79v-79h-79zm-80 0v79h79v-79h-79zm-80 0v79h79v-79h-79zm-80 0v79h79v-79h-79zm-80 0v79h79v-79h-79zm-80 0v79h79v-79h-79zm-80 0v79h79v-79h-79zm-80 0v79h79v-79H81zm-80 0v79h79v-79H1zM1361 481.5v79h79v-79h-79zm-80 0v79h79v-79h-79zm-80 0v79h79v-79h-79zm-80 0v79h79v-79h-79zm-80 0v79h79v-79h-79zm-80 0v79h79v-79h-79zm-80 0v79h79v-79h-79zm-80 0v79h79v-79h-79zm-80 0v79h79v-79h-79zm-80-.001v79h79v-79h-79zm-80 0v79h79v-79h-79zm-80 0v79h79v-79h-79zm-80 0v79h79v-79h-79zm-80 0v79h79v-79h-79zm-80 0v79h79v-79h-79zm-80 0v79h79v-79h-79zm-80 0v79h79v-79H81zm-80 0v79h79v-79H1zM1361 401.5v79h79v-79h-79zm-80 0v79h79v-79h-79zm-80 0v79h79v-79h-79zm-80 0v79h79v-79h-79zm-80 0v79h79v-79h-79zm-80 0v79h79v-79h-79zm-80 0v79h79v-79h-79zm-80 0v79h79v-79h-79zm-80 0v79h79v-79h-79zm-80-.001v79h79v-79h-79zm-80 0v79h79v-79h-79zm-80 0v79h79v-79h-79zm-80 0v79h79v-79h-79zm-80 0v79h79v-79h-79zm-80 0v79h79v-79h-79zm-80 0v79h79v-79h-79zm-80 0v79h79v-79H81zm-80 0v79h79v-79H1zM1361 321.5v79h79v-79h-79zm-80 0v79h79v-79h-79zm-80 0v79h79v-79h-79zm-80 0v79h79v-79h-79zm-80 0v79h79v-79h-79zm-80 0v79h79v-79h-79zm-80 0v79h79v-79h-79zm-80 0v79h79v-79h-79zm-80 0v79h79v-79h-79zm-80-.001v79h79v-79h-79zm-80 0v79h79v-79h-79zm-80 0v79h79v-79h-79zm-80 0v79h79v-79h-79zm-80 0v79h79v-79h-79zm-80 0v79h79v-79h-79zm-80 0v79h79v-79h-79zm-80 0v79h79v-79H81zm-80 0v79h79v-79H1zM1361 241.5v79h79v-79h-79zm-80 0v79h79v-79h-79zm-80 0v79h79v-79h-79zm-80 0v79h79v-79h-79zm-80 0v79h79v-79h-79zm-80 0v79h79v-79h-79zm-80 0v79h79v-79h-79zm-80 0v79h79v-79h-79zm-80 0v79h79v-79h-79zm-80-.001v79h79v-79h-79zm-80 0v79h79v-79h-79zm-80 0v79h79v-79h-79zm-80 0v79h79v-79h-79zm-80 0v79h79v-79h-79zm-80 0v79h79v-79h-79zm-80 0v79h79v-79h-79zm-80 0v79h79v-79H81zm-80 0v79h79v-79H1zM1361 161.5v79h79v-79h-79zm-80 0v79h79v-79h-79zm-80 0v79h79v-79h-79zm-80 0v79h79v-79h-79zm-80 0v79h79v-79h-79zm-80 0v79h79v-79h-79zm-80 0v79h79v-79h-79zm-80 0v79h79v-79h-79zm-80 0v79h79v-79h-79zm-80-.001v79h79v-79h-79zm-80 0v79h79v-79h-79zm-80 0v79h79v-79h-79zm-80 0v79h79v-79h-79zm-80 0v79h79v-79h-79zm-80 0v79h79v-79h-79zm-80 0v79h79v-79h-79zm-80 0v79h79v-79H81zm-80 0v79h79v-79H1zM1361 81.5v79h79v-79h-79zm-80 0v79h79v-79h-79zm-80 0v79h79v-79h-79zm-80 0v79h79v-79h-79zm-80 0v79h79v-79h-79zm-80 0v79h79v-79h-79zm-80 0v79h79v-79h-79zm-80 0v79h79v-79h-79zm-80 0v79h79v-79h-79zm-80-.001v79h79v-79h-79zm-80 0v79h79v-79h-79zm-80 0v79h79v-79h-79zm-80 0v79h79v-79h-79zm-80 0v79h79v-79h-79zm-80 0v79h79v-79h-79zm-80 0v79h79v-79h-79zm-80 0v79h79v-79H81zm-80 0v79h79v-79H1zM1361 1.5v79h79v-79h-79zm-80 0v79h79v-79h-79zm-80 0v79h79v-79h-79zm-80 0v79h79v-79h-79zm-80 0v79h79v-79h-79zm-80 0v79h79v-79h-79zm-80 0v79h79v-79h-79zm-80 0v79h79v-79h-79zm-80 0v79h79v-79h-79zm-80-.001v79h79v-79h-79zm-80 0v79h79v-79h-79zm-80 0v79h79v-79h-79zm-80 0v79h79v-79h-79zm-80 0v79h79v-79h-79zm-80 0v79h79v-79h-79zm-80 0v79h79v-79h-79zm-80 0v79h79v-79H81zm-80 0v79h79v-79H1z" fill="url(#tvkh7rsq7c)" opacity=".614" transform="translate(0 -1)"/>
        </g>
    </g>
</svg>
