<svg width="1440" height="499" viewBox="0 0 1440 499" xmlns="http://www.w3.org/2000/svg" xmlns:xlink="http://www.w3.org/1999/xlink">
    <defs>
        <radialGradient cx="73.338%" cy="8.968%" fx="73.338%" fy="8.968%" r="18.886%" gradientTransform="matrix(0 1 -1.6916 0 .885 -.644)" id="ijb9gz5lfc">
            <stop stop-color="#959595" offset="0%"/>
            <stop stop-color="#FFF" stop-opacity="0" offset="100%"/>
        </radialGradient>
        <path id="kizxyxetoa" d="M0 0h1440v499H0z"/>
    </defs>
    <g transform="rotate(180 720 249.5)" fill="none" fill-rule="evenodd">
        <mask id="5i9fvodsyb" fill="#fff">
            <use xlink:href="#kizxyxetoa"/>
        </mask>
        <use fill-opacity="0" fill="#D8D8D8" xlink:href="#kizxyxetoa"/>
        <g mask="url(#5i9fvodsyb)">
            <path fill="none" d="M0-13h1441v1441H0z"/>
            <path d="M40 2.5v79.499h79V2.5h1v79.499h79V2.5h1v79.499h79V2.5h1v79.499h79V2.5h1v79.499h79V2.5h1v79.499h79V2.5h1v79.499h79V2.5h1v79.499h79V2.5h1v79.499h79V2.5h1v79.499h79V2.5h1v79.499h79V2.5h1v79.499h79V2.5h1v79.499h79V2.5h1v79.499h79V2.5h1v79.499h79V2.5h1v79.499h79V2.5h1v79.499h79V2.5h1v79.499h79V2.5h1v1440h-.5v.5H39.5v-.5H39V2.5h1zm79 1360.499H40v79h79v-79zm80 0h-79v79h79v-79zm80 0h-79v79h79v-79zm80 0h-79v79h79v-79zm80 0h-79v79h79v-79zm80 0h-79v79h79v-79zm80 0h-79v79h79v-79zm80 0h-79v79h79v-79zm80 0h-79v79h79v-79zm80 0h-79v79h79v-79zm80 0h-79v79h79v-79zm80 0h-79v79h79v-79zm80 0h-79v79h79v-79zm80 0h-79v79h79v-79zm80 0h-79v79h79v-79zm80 0h-79v79h79v-79zm80 0h-79v79h79v-79zm80 0h-79v79h79v-79zm-1360-80H40v79h79v-79zm80 0h-79v79h79v-79zm80 0h-79v79h79v-79zm80 0h-79v79h79v-79zm80 0h-79v79h79v-79zm80 0h-79v79h79v-79zm80 0h-79v79h79v-79zm80 0h-79v79h79v-79zm80 0h-79v79h79v-79zm80 0h-79v79h79v-79zm80 0h-79v79h79v-79zm80 0h-79v79h79v-79zm80 0h-79v79h79v-79zm80 0h-79v79h79v-79zm80 0h-79v79h79v-79zm80 0h-79v79h79v-79zm80 0h-79v79h79v-79zm80 0h-79v79h79v-79zm-1360-80H40v79h79v-79zm80 0h-79v79h79v-79zm80 0h-79v79h79v-79zm80 0h-79v79h79v-79zm80 0h-79v79h79v-79zm80 0h-79v79h79v-79zm80 0h-79v79h79v-79zm80 0h-79v79h79v-79zm80 0h-79v79h79v-79zm80 0h-79v79h79v-79zm80 0h-79v79h79v-79zm80 0h-79v79h79v-79zm80 0h-79v79h79v-79zm80 0h-79v79h79v-79zm80 0h-79v79h79v-79zm80 0h-79v79h79v-79zm80 0h-79v79h79v-79zm80 0h-79v79h79v-79zm-1360-80H40v79h79v-79zm80 0h-79v79h79v-79zm80 0h-79v79h79v-79zm80 0h-79v79h79v-79zm80 0h-79v79h79v-79zm80 0h-79v79h79v-79zm80 0h-79v79h79v-79zm80 0h-79v79h79v-79zm80 0h-79v79h79v-79zm80 0h-79v79h79v-79zm80 0h-79v79h79v-79zm80 0h-79v79h79v-79zm80 0h-79v79h79v-79zm80 0h-79v79h79v-79zm80 0h-79v79h79v-79zm80 0h-79v79h79v-79zm80 0h-79v79h79v-79zm80 0h-79v79h79v-79zm-1360-80H40v79h79v-79zm80 0h-79v79h79v-79zm80 0h-79v79h79v-79zm80 0h-79v79h79v-79zm80 0h-79v79h79v-79zm80 0h-79v79h79v-79zm80 0h-79v79h79v-79zm80 0h-79v79h79v-79zm80 0h-79v79h79v-79zm80 0h-79v79h79v-79zm80 0h-79v79h79v-79zm80 0h-79v79h79v-79zm80 0h-79v79h79v-79zm80 0h-79v79h79v-79zm80 0h-79v79h79v-79zm80 0h-79v79h79v-79zm80 0h-79v79h79v-79zm80 0h-79v79h79v-79zm-1360-80H40v79h79v-79zm80 0h-79v79h79v-79zm80 0h-79v79h79v-79zm80 0h-79v79h79v-79zm80 0h-79v79h79v-79zm80 0h-79v79h79v-79zm80 0h-79v79h79v-79zm80 0h-79v79h79v-79zm80 0h-79v79h79v-79zm80 0h-79v79h79v-79zm80 0h-79v79h79v-79zm80 0h-79v79h79v-79zm80 0h-79v79h79v-79zm80 0h-79v79h79v-79zm80 0h-79v79h79v-79zm80 0h-79v79h79v-79zm80 0h-79v79h79v-79zm80 0h-79v79h79v-79zm-1360-80H40v79h79v-79zm80 0h-79v79h79v-79zm80 0h-79v79h79v-79zm80 0h-79v79h79v-79zm80 0h-79v79h79v-79zm80 0h-79v79h79v-79zm80 0h-79v79h79v-79zm80 0h-79v79h79v-79zm80 0h-79v79h79v-79zm80 0h-79v79h79v-79zm80 0h-79v79h79v-79zm80 0h-79v79h79v-79zm80 0h-79v79h79v-79zm80 0h-79v79h79v-79zm80 0h-79v79h79v-79zm80 0h-79v79h79v-79zm80 0h-79v79h79v-79zm80 0h-79v79h79v-79zm-1360-80H40v79h79v-79zm80 0h-79v79h79v-79zm80 0h-79v79h79v-79zm80 0h-79v79h79v-79zm80 0h-79v79h79v-79zm80 0h-79v79h79v-79zm80 0h-79v79h79v-79zm80 0h-79v79h79v-79zm80 0h-79v79h79v-79zm80 0h-79v79h79v-79zm80 0h-79v79h79v-79zm80 0h-79v79h79v-79zm80 0h-79v79h79v-79zm80 0h-79v79h79v-79zm80 0h-79v79h79v-79zm80 0h-79v79h79v-79zm80 0h-79v79h79v-79zm80 0h-79v79h79v-79zm-1360-80H40v79h79v-79zm80 0h-79v79h79v-79zm80 0h-79v79h79v-79zm80 0h-79v79h79v-79zm80 0h-79v79h79v-79zm80 0h-79v79h79v-79zm80 0h-79v79h79v-79zm80 0h-79v79h79v-79zm80 0h-79v79h79v-79zm80 0h-79v79h79v-79zm80 0h-79v79h79v-79zm80 0h-79v79h79v-79zm80 0h-79v79h79v-79zm80 0h-79v79h79v-79zm80 0h-79v79h79v-79zm80 0h-79v79h79v-79zm80 0h-79v79h79v-79zm80 0h-79v79h79v-79zm-1360-80H40v79h79v-79zm80 0h-79v79h79v-79zm80 0h-79v79h79v-79zm80 0h-79v79h79v-79zm80 0h-79v79h79v-79zm80 0h-79v79h79v-79zm80 0h-79v79h79v-79zm80 0h-79v79h79v-79zm80 0h-79v79h79v-79zm80 0h-79v79h79v-79zm80 0h-79v79h79v-79zm80 0h-79v79h79v-79zm80 0h-79v79h79v-79zm80 0h-79v79h79v-79zm80 0h-79v79h79v-79zm80 0h-79v79h79v-79zm80 0h-79v79h79v-79zm80 0h-79v79h79v-79zm-1360-80H40v79h79v-79zm80 0h-79v79h79v-79zm80 0h-79v79h79v-79zm80 0h-79v79h79v-79zm80 0h-79v79h79v-79zm80 0h-79v79h79v-79zm80 0h-79v79h79v-79zm80 0h-79v79h79v-79zm80 0h-79v79h79v-79zm80 0h-79v79h79v-79zm80 0h-79v79h79v-79zm80 0h-79v79h79v-79zm80 0h-79v79h79v-79zm80 0h-79v79h79v-79zm80 0h-79v79h79v-79zm80 0h-79v79h79v-79zm80 0h-79v79h79v-79zm80 0h-79v79h79v-79zm-1360-80H40v79h79v-79zm80 0h-79v79h79v-79zm80 0h-79v79h79v-79zm80 0h-79v79h79v-79zm80 0h-79v79h79v-79zm80 0h-79v79h79v-79zm80 0h-79v79h79v-79zm80 0h-79v79h79v-79zm80 0h-79v79h79v-79zm80 0h-79v79h79v-79zm80 0h-79v79h79v-79zm80 0h-79v79h79v-79zm80 0h-79v79h79v-79zm80 0h-79v79h79v-79zm80 0h-79v79h79v-79zm80 0h-79v79h79v-79zm80 0h-79v79h79v-79zm80 0h-79v79h79v-79zm-1360-80H40v79h79v-79zm80 0h-79v79h79v-79zm80 0h-79v79h79v-79zm80 0h-79v79h79v-79zm80 0h-79v79h79v-79zm80 0h-79v79h79v-79zm80 0h-79v79h79v-79zm80 0h-79v79h79v-79zm80 0h-79v79h79v-79zm80 0h-79v79h79v-79zm80 0h-79v79h79v-79zm80 0h-79v79h79v-79zm80 0h-79v79h79v-79zm80 0h-79v79h79v-79zm80 0h-79v79h79v-79zm80 0h-79v79h79v-79zm80 0h-79v79h79v-79zm80 0h-79v79h79v-79zm-1360-80H40v79h79v-79zm80 0h-79v79h79v-79zm80 0h-79v79h79v-79zm80 0h-79v79h79v-79zm80 0h-79v79h79v-79zm80 0h-79v79h79v-79zm80 0h-79v79h79v-79zm80 0h-79v79h79v-79zm80 0h-79v79h79v-79zm80 0h-79v79h79v-79zm80 0h-79v79h79v-79zm80 0h-79v79h79v-79zm80 0h-79v79h79v-79zm80 0h-79v79h79v-79zm80 0h-79v79h79v-79zm80 0h-79v79h79v-79zm80 0h-79v79h79v-79zm80 0h-79v79h79v-79zM119 243H40v78.999h79V243zm80 0h-79v78.999h79V243zm80 0h-79v78.999h79V243zm80 0h-79v78.999h79V243zm80 0h-79v78.999h79V243zm80 0h-79v78.999h79V243zm80 0h-79v78.999h79V243zm80 0h-79v78.999h79V243zm80 0h-79v78.999h79V243zm80 0h-79v78.999h79V243zm80 0h-79v78.999h79V243zm80 0h-79v78.999h79V243zm80 0h-79v78.999h79V243zm80 0h-79v78.999h79V243zm80 0h-79v78.999h79V243zm80 0h-79v78.999h79V243zm80 0h-79v78.999h79V243zm80 0h-79v78.999h79V243zM119 162.999H40V242h79v-79.001zm80 0h-79V242h79v-79.001zm80 0h-79V242h79v-79.001zm80 0h-79V242h79v-79.001zm80 0h-79V242h79v-79.001zm80 0h-79V242h79v-79.001zm80 0h-79V242h79v-79.001zm80 0h-79V242h79v-79.001zm80 0h-79V242h79v-79.001zm80 0h-79V242h79v-79.001zm80 0h-79V242h79v-79.001zm80 0h-79V242h79v-79.001zm80 0h-79V242h79v-79.001zm80 0h-79V242h79v-79.001zm80 0h-79V242h79v-79.001zm80 0h-79V242h79v-79.001zm80 0h-79V242h79v-79.001zm80 0h-79V242h79v-79.001zm-1360-80H40v79h79v-79zm80 0h-79v79h79v-79zm80 0h-79v79h79v-79zm80 0h-79v79h79v-79zm80 0h-79v79h79v-79zm80 0h-79v79h79v-79zm80 0h-79v79h79v-79zm80 0h-79v79h79v-79zm80 0h-79v79h79v-79zm80 0h-79v79h79v-79zm80 0h-79v79h79v-79zm80 0h-79v79h79v-79zm80 0h-79v79h79v-79zm80 0h-79v79h79v-79zm80 0h-79v79h79v-79zm80 0h-79v79h79v-79zm80 0h-79v79h79v-79zm80 0h-79v79h79v-79z" fill="url(#ijb9gz5lfc)" opacity=".344" transform="translate(0 -13)"/>
        </g>
    </g>
</svg>
