<svg width="180" height="54" viewBox="0 0 180 54" xmlns="http://www.w3.org/2000/svg">
    <defs>
        <linearGradient x1="45.619%" y1="50.81%" x2="66.968%" y2="35.218%" id="zqfbsyq8ea">
            <stop stop-color="red" offset="0%"/>
            <stop stop-color="#AE0000" offset="100%"/>
        </linearGradient>
        <linearGradient x1="50.674%" y1="-10.714%" x2="49.508%" y2="97.499%" id="pr3i7kw0xb">
            <stop stop-color="#FFF" offset="0%"/>
            <stop stop-color="#FCF2B4" offset="8.627%"/>
            <stop stop-color="#F8E568" offset="27.059%"/>
            <stop stop-color="#E9C047" offset="39.216%"/>
            <stop stop-color="#D99A26" offset="50.98%"/>
            <stop stop-color="#C08622" offset="55.294%"/>
            <stop stop-color="#A7711E" offset="70.98%"/>
            <stop stop-color="#C08522" offset="79.608%"/>
            <stop stop-color="#D99A26" offset="85.098%"/>
            <stop stop-color="#F6CE69" offset="100%"/>
        </linearGradient>
        <linearGradient x1="57.921%" y1="-10.645%" x2="45.218%" y2="110.68%" id="aa39kll2uc">
            <stop stop-color="#FFF" offset="0%"/>
            <stop stop-color="#FCF2B4" offset="8.627%"/>
            <stop stop-color="#F8E568" offset="27.059%"/>
            <stop stop-color="#E9C047" offset="39.216%"/>
            <stop stop-color="#D99A26" offset="50.98%"/>
            <stop stop-color="#C08622" offset="55.294%"/>
            <stop stop-color="#A7711E" offset="70.98%"/>
            <stop stop-color="#C08522" offset="79.608%"/>
            <stop stop-color="#D99A26" offset="85.098%"/>
            <stop stop-color="#F6CE69" offset="100%"/>
        </linearGradient>
        <linearGradient x1="50.118%" y1="6.84%" x2="49.663%" y2="90.191%" id="rd6vbu426d">
            <stop stop-color="#F9EB8A" offset="0%"/>
            <stop stop-color="#F9EC93" offset="4.314%"/>
            <stop stop-color="#FAEE9D" offset="12.941%"/>
            <stop stop-color="#F9EA83" offset="20%"/>
            <stop stop-color="#F8E568" offset="27.059%"/>
            <stop stop-color="#E9C047" offset="39.216%"/>
            <stop stop-color="#D99A26" offset="50.98%"/>
            <stop stop-color="#C08622" offset="55.294%"/>
            <stop stop-color="#A7711E" offset="70.98%"/>
            <stop stop-color="#C08522" offset="79.608%"/>
            <stop stop-color="#D99A26" offset="85.098%"/>
            <stop stop-color="#F6CE69" offset="100%"/>
        </linearGradient>
        <linearGradient x1="53.95%" y1="-70.694%" x2="49.693%" y2="77.186%" id="zxnlnw9ete">
            <stop stop-color="#FFF" offset="0%"/>
            <stop stop-color="#FCF2B4" offset="8.627%"/>
            <stop stop-color="#F8E568" offset="27.059%"/>
            <stop stop-color="#E9C047" offset="39.216%"/>
            <stop stop-color="#D99A26" offset="50.98%"/>
            <stop stop-color="#C08622" offset="55.294%"/>
            <stop stop-color="#A7711E" offset="70.98%"/>
            <stop stop-color="#C08522" offset="79.608%"/>
            <stop stop-color="#D99A26" offset="85.098%"/>
            <stop stop-color="#F6CE69" offset="100%"/>
        </linearGradient>
        <linearGradient x1="9.164%" y1="-56.601%" x2="63.107%" y2="103.294%" id="r70m1y8dwf">
            <stop stop-color="#FFF" offset="0%"/>
            <stop stop-color="#FCF2B4" offset="8.627%"/>
            <stop stop-color="#F8E568" offset="27.059%"/>
            <stop stop-color="#E9C047" offset="39.216%"/>
            <stop stop-color="#D99A26" offset="50.98%"/>
            <stop stop-color="#C08622" offset="55.294%"/>
            <stop stop-color="#A7711E" offset="70.98%"/>
            <stop stop-color="#C08522" offset="79.608%"/>
            <stop stop-color="#D99A26" offset="85.098%"/>
            <stop stop-color="#F6CE69" offset="100%"/>
        </linearGradient>
        <linearGradient x1="-20.405%" y1="-20.754%" x2="103.861%" y2="138.928%" id="q7ch7xfmyg">
            <stop stop-color="#FFF" offset="0%"/>
            <stop stop-color="#FCF2B4" offset="8.627%"/>
            <stop stop-color="#F8E568" offset="27.059%"/>
            <stop stop-color="#E9C047" offset="39.216%"/>
            <stop stop-color="#D99A26" offset="50.98%"/>
            <stop stop-color="#C08622" offset="55.294%"/>
            <stop stop-color="#A7711E" offset="70.98%"/>
            <stop stop-color="#C08522" offset="79.608%"/>
            <stop stop-color="#D99A26" offset="85.098%"/>
            <stop stop-color="#F6CE69" offset="100%"/>
        </linearGradient>
    </defs>
    <g fill="none" fill-rule="evenodd">
        <path d="M13.6 28.43a12.913 12.913 0 0 1-.381-3.965 65.713 65.713 0 0 0 2.784-.457L13.6 28.43z" fill="url(#zqfbsyq8ea)" transform="translate(8.771 12.213)"/>
        <path d="M19.625 5.86a.565.565 0 0 0 .796.227l2.94-1.776-1.769 9.613c-.107.586.61.95 1.008.512l3.8-4.158 1.036 2.315c.09.2.305.31.516.26l4.94-1.125-1.633 5.152a.608.608 0 0 0 .327.737l1.978.896-8.416 6.987a.638.638 0 0 0-.187.718l1.117 2.913-7.802-1.333a.825.825 0 0 0-.957.865l.395 7.376-1.495.018.257-7.384a.824.824 0 0 0-.976-.842l-7.77 1.517 1.05-2.938a.637.637 0 0 0-.204-.714L0 18.91l1.957-.942a.608.608 0 0 0 .31-.745L.517 12.11 5.48 13.12a.455.455 0 0 0 .51-.273l.983-2.34 3.894 4.068c.23.24.555.225.773.061a.58.58 0 0 0 .223-.597L9.872 4.471l2.98 1.706a.565.565 0 0 0 .79-.245L16.567 0l3.059 5.86z" fill="url(#pr3i7kw0xb)" transform="translate(8.771 12.213)"/>
        <path d="M10.867 14.575c.23.24.555.225.773.061L16.522 26.6l-.046 2.059a.824.824 0 0 0-.976-.828l-7.77 1.517 1.05-2.938a.637.637 0 0 0-.204-.714L0 18.91l1.957-.942a.608.608 0 0 0 .31-.745L.517 12.11 5.48 13.12a.455.455 0 0 0 .51-.273l.983-2.34 3.894 4.068zm5.655 14.188.002-.104-.002.104z" fill="url(#aa39kll2uc)" transform="translate(8.771 12.213)"/>
        <path d="M19.625 5.86a.565.565 0 0 0 .796.227l2.94-1.776-1.769 9.613c-.107.586.61.95 1.008.512l3.8-4.158 1.036 2.315c.09.2.305.31.516.26l4.94-1.125-1.633 5.152a.608.608 0 0 0 .327.737l1.978.896-8.416 6.987a.638.638 0 0 0-.187.718l1.117 2.913-7.802-1.333a.825.825 0 0 0-.957.865l.397 7.379-.756.009L16.566 0l3.059 5.86z" fill="url(#rd6vbu426d)" transform="translate(8.771 12.213)"/>
        <path d="M16.142 27.19c.23.222.357.532.35.852l-.016.62a.824.824 0 0 0-.976-.831l-7.77 1.517 1.05-2.938a.637.637 0 0 0-.204-.714L0 18.91l1.957-.942a.608.608 0 0 0 .31-.745L.517 12.11l15.625 15.08zm.38 1.576.002-.105-.002.105z" fill="url(#zxnlnw9ete)" transform="translate(8.771 12.213)"/>
        <path d="M27.436 12.593c.09.2.305.31.516.26l4.94-1.125-1.633 5.152a.608.608 0 0 0 .327.737l1.978.896-8.416 6.987a.638.638 0 0 0-.187.718l1.117 2.913-7.802-1.333a.825.825 0 0 0-.957.85l-.093-2.056 4.603-12.076a.573.573 0 0 0 .771-.08l3.8-4.158 1.036 2.315zM17.37 28.753l-.006-.104.006.104z" fill="url(#r70m1y8dwf)" transform="translate(8.771 12.213)"/>
        <path d="M31.26 16.88a.608.608 0 0 0 .326.737l1.978.896-8.416 6.987a.638.638 0 0 0-.187.718l1.117 2.913-7.802-1.333a.825.825 0 0 0-.957.853l-.03-.619c-.015-.319.104-.632.33-.858L32.89 11.728 31.26 16.88zM17.37 28.756l-.006-.105.006.105z" fill="url(#q7ch7xfmyg)" transform="translate(8.771 12.213)"/>
        <path d="M18.457.07c.172.105.358.19.521.305l.222.13a.404.404 0 0 1 .752.21.41.41 0 0 1-.052.2l.592.346a.403.403 0 0 1 .744.223.41.41 0 0 1-.045.186l-.126-.072c.508.292 1.008.584 1.513.865.046.025.14-.004.196-.036.372-.209.736-.433 1.11-.637a2.41 2.41 0 0 1 1.32-.3c.326.02.422.2.257.486-.241.42-.586.737-1.015.952-.376.189-.76.363-1.142.538-.1.045-.147.104-.156.219-.032.386-.076.771-.115 1.157l-.036.367-.007.068a.412.412 0 0 1 .294.615.404.404 0 0 1-.358.2l-.086.69a.411.411 0 0 1 .322.618.403.403 0 0 1-.403.196l-.033.26c-.02.18-.036.36-.052.54-.017.195-.113.318-.285.414-.077.043-.152.079-.228.118-.232.12-.29.089-.312-.168l-.252-2.978c-.04-.477-.082-.954-.125-1.448-.08.036-.142.062-.202.09-1.076.506-2.149 1.018-3.23 1.513-.159.073-.207.157-.226.321-.05.414-.118.826-.191 1.237-.019.107-.167.258-.304.314l-.697.3C7.404 12.048 1.79 21.454 2.76 31.335c1.305 13.31 13.667 22.833 27.048 20.74 17.92-2.801 26.274-23.23 15.615-37.812a11.56 11.56 0 0 1-.69-1.052c.175.091.239.145.29.2.077.082.153.166.223.255 5.309 6.789 6.875 14.37 4.44 22.618C46.36 47.55 35.512 54.8 23.613 53.929 10.93 53 .644 42.68.037 30.136c-.45-9.296 3.17-16.785 10.597-22.453a22.31 22.31 0 0 1 4.816-2.784l.502-.209-.015.007a.445.445 0 0 1 .027-.012l.007-.003.01-.003.019-.005.043-.007c.105.003.174.04.27.086.361.176.72.358 1.074.548.123.066.22.056.34-.013.7-.406 1.405-.806 2.11-1.208.38-.216.784-.447 1.186-.674-.069-.07-.141-.115-.2-.166-.62-.543-1.24-1.087-1.864-1.628-.433-.377-.87-.75-1.304-1.126-.143-.124-.139-.174.011-.258.107-.06.19-.1.296-.16a.476.476 0 0 1 .495.003z" fill="#000" fill-rule="nonzero"/>
        <text fill-rule="nonzero" font-family="Helvetica-Bold, Helvetica" font-size="25.108" font-weight="bold" fill="#000">
                        <tspan x="62.116" y="31.269">ROOT ON</tspan>
                    </text>
        <text fill-rule="nonzero" font-family="Helvetica-Bold, Helvetica" font-size="8.69" font-weight="bold" fill="#000">
                        <tspan x="62.13" y="42.231">WE UNDERSTAND YOU!</tspan>
                    </text>
    </g>
</svg>
