<svg xmlns="http://www.w3.org/2000/svg" width="30" height="24" viewBox="0 0 30 24">
    <path d="M10.645 0v8.64H8.71v3.84h.967V24H0V2.88L10.645 0zm8.71 12.48V24h-2.903v-4.32h-2.904V24h-2.903V12.48h8.71zm9.677-4.8V24h-8.71V12.48h.968V8.64h-1.935v-.96h9.677zM3.885 19.2h-1.95v1.934h1.95V19.2zm3.862 0h-1.95v1.934h1.95V19.2zM25.16 9.6h-1.935v11.52h1.935V9.6zm-7.258 7.68h-5.806v.96h5.806v-.96zM3.885 14.4h-1.95v1.934h1.95V14.4zm3.862 0h-1.95v1.934h1.95V14.4zm10.156.96h-5.806v.96h5.806v-.96zm0-1.92h-5.806v.96h5.806v-.96zM3.885 9.6h-1.95v1.934h1.95V9.6zm3.862 0h-1.95v1.934h1.95V9.6zm12.576 0v1.92H9.677V9.6h10.646zM3.885 4.8h-1.95v1.934h1.95V4.8zm3.862 0h-1.95v1.934h1.95V4.8zM30 4.8v1.92H18.387V4.8H30zM24.677.96v2.88h-.967V.96h.967z"  fillRule="nonzero"/>
</svg>